<?xml version="1.0" encoding="UTF-8" standalone="no"?>
<!DOCTYPE svg PUBLIC "-//W3C//DTD SVG 1.1//EN" "http://www.w3.org/Graphics/SVG/1.1/DTD/svg11.dtd">
<svg width="100%" height="100%" viewBox="0 0 960 581" version="1.1" xmlns="http://www.w3.org/2000/svg" xmlns:xlink="http://www.w3.org/1999/xlink" xml:space="preserve" xmlns:serif="http://www.serif.com/" style="fill-rule:evenodd;clip-rule:evenodd;stroke-linejoin:round;stroke-miterlimit:2;">
    <g transform="matrix(1,0,0,1,39,100)">
        <path d="M484.035,310.501C484.024,309.978 483.086,197.996 483.944,196.866C485.272,195.118 593.936,196.127 603.5,196.216C647.833,196.627 672.458,239.403 668.44,262.49C662.385,297.282 637.163,303.642 638.239,307.633C639.322,311.647 742.029,309.791 744.436,309.31C749.499,308.298 725.89,288.905 715.915,272.258C705.549,254.96 708.827,234.303 714.055,224.285C720.009,212.875 731.145,194.326 768.5,194.325C877.695,194.323 877.785,194.287 878.328,194.712C879.398,195.549 879.23,257.485 878.31,258.286C877.162,259.285 795.002,258.232 794.513,258.528C791.133,260.574 796.478,260.435 823.808,298.295C839.938,320.638 830.588,346.054 817.25,360.279C803.569,374.869 792.882,375.506 785.506,376.544C765.32,379.387 664.055,377.92 653.494,377.767C611.906,377.164 610.626,377.838 594.275,364.795C591.26,362.391 574.198,348.781 558.616,332.368C554.678,328.22 555.945,336.774 555.939,339.502C555.864,376.72 556.044,377.395 554.601,377.803C553.806,378.027 485.864,377.706 485.461,377.682C483.849,377.587 484.06,376.591 484.035,310.501ZM868.036,218.499C867.664,245.757 868.175,247.294 865.491,247.323C829.092,247.719 787.564,245.894 784.566,248.574C777.326,255.047 783.236,264.057 783.965,265.168C801.224,291.482 829.077,308.748 819.041,336.357C814.15,349.813 802.275,363.439 786.463,365.125C761.53,367.784 622.696,366.931 615.6,365.098C601.408,361.435 548.253,305.674 546.355,305.84C544.706,305.983 545.066,306.849 545.052,327.5C545.026,366.101 544.272,366.381 543.531,366.591C543.29,366.659 496.819,366.736 495.757,366.107C494.444,365.329 495.312,364.852 494.927,304.499C494.878,296.831 494.325,209.956 494.951,208.637C495.518,207.443 495.997,207.517 599.5,207.528C623.178,207.53 635.895,214.279 650.357,234.597C657.533,244.678 664.844,270.442 640.109,291.034C625.306,303.357 617.108,301.466 621.888,307.174C634.774,322.561 639.067,320.768 666.495,320.944C747.008,321.459 747.498,322.029 753.542,318.565C754.898,317.788 760.128,312.052 757.09,305.702C748.187,287.096 706.493,265.921 724.743,227.627C734.801,206.521 759.019,205.854 762.509,205.758C763.025,205.744 866.218,205.384 867.222,205.941C868.099,206.427 867.899,208.202 868.036,218.499Z" style="fill:rgb(254,232,24);fill-opacity:1;"/>
        <path d="M357.5,63.953C353.769,63.957 345.02,63.217 344.817,65.545C344.517,68.999 345.306,183.269 344.382,184.405C344.051,184.814 344.01,185.139 278.502,185.083C276.432,185.081 275.19,185.151 275.172,182.508C274.93,146.211 275.805,65.569 274.585,64.396C273.748,63.591 193.97,64.103 193.483,64.469C188.508,68.205 229.927,104.948 231.699,126.479C233.151,144.141 223.695,180.743 184.55,183.998C173.312,184.933 173.374,185.084 12.5,185.083C10.097,185.083 2.291,186.34 2.265,182.505C2.23,177.463 1.843,121.219 2.422,119.47C2.836,118.223 3.422,118.318 136.5,118.325C137.02,118.325 145.787,118.825 146.104,117.394C147.196,112.456 108.887,84.637 109.276,59.502C109.347,54.858 109.829,23.691 137.7,8.882C153.679,0.392 155.512,3.055 250.5,2.394C264.329,2.298 421.719,1.203 423.367,2.65C424.023,3.227 423.929,3.431 423.929,58.5C423.929,60.266 424.878,63.926 421.517,63.952C421.442,63.953 408.501,63.953 357.5,63.953ZM413.034,47.5C412.93,48.481 414.805,52.939 409.501,52.982C378.501,53.236 334.823,52.246 333.804,53.727C332.554,55.545 334.688,172.856 332.658,173.749C332.018,174.031 287.761,174.804 286.767,173.318C285.551,171.501 287.624,54.18 285.653,53.27C285.046,52.99 193.188,52.321 188.661,53.926C182.191,56.22 178.887,64.465 182.93,71.262C195.171,91.84 222.482,115.183 220.782,132.516C220.4,136.418 217.607,164.891 191.6,171.881C185.993,173.388 185.918,174.232 17.5,174.075C12.247,174.071 13.62,171.778 13.606,166.5C13.598,163.701 13.518,134.392 13.622,131.514C13.698,129.427 14.951,129.732 64.5,129.732C148.356,129.732 148.596,129.896 150.536,128.551C166.942,117.182 155.165,111.055 131.087,81.862C129.105,79.46 113.822,65.585 123.938,40.674C130.631,24.192 146.45,14.366 158.517,13.926C169.743,13.516 387.581,13.527 407.5,13.528C409.307,13.528 412.857,12.945 412.947,15.434C413.022,17.545 412.865,42.59 413.034,47.5Z" style="fill:rgb(254,232,24);fill-opacity:1;"/>
        <path d="M629.047,108.5C629.047,4.615 628.957,4.335 629.729,3.808C630.801,3.076 723.328,3.406 753.508,4.189C803.947,5.498 812.559,48.953 812.77,50.463C820.081,102.598 782.433,110.106 783.266,115.566C783.914,119.809 808.413,117.412 849.487,118.798C877.038,119.727 878.105,118.213 878.756,120.413C878.884,120.845 879.56,153.611 879.619,156.498C880.192,184.253 879.704,184.718 878.443,185.061C875.6,185.834 821.456,185.145 816.501,185.082C801.937,184.897 802.031,184.971 787.498,184.947C754.687,184.892 752.869,185.541 728.482,163.52C709.676,146.538 704.307,140.915 704.241,140.854C700.758,137.649 702.573,142.988 702.5,182.5C702.495,185.66 700.207,185.083 697.5,185.083C630.182,185.091 630.01,185.121 629.468,184.528C628.987,184.003 629.047,183.881 629.047,108.5ZM789.5,174.047C760.473,173.168 760.014,173.748 752.742,169.12C743.228,163.067 699.78,121.728 692.573,114.348C689.53,111.232 691.227,116.497 691.172,171.497C691.168,175.231 685.622,174.075 684.5,174.075C641.273,174.076 640.238,174.375 639.963,172.454C639.42,168.667 639.969,29.887 640.018,17.49C640.031,14.058 641.906,14.784 666.5,14.784C759.93,14.784 770.499,13.876 783.347,24.688C794.217,33.837 799.479,41.444 801.332,50.533C809.602,91.087 778.567,104.189 766.785,110.915C761.82,113.749 779.393,127.03 780.809,128.1C783.789,130.352 865.526,129.085 867.344,130.68C868.554,131.74 868.491,173.094 868.287,173.351C867.044,174.906 834.098,173.687 789.5,174.047Z" style="fill:rgb(254,232,24);fill-opacity:0.99;"/>
        <path d="M190.933,243.064C192.862,243.065 192.21,242.139 193.444,238.479C194.573,235.131 206.886,198.601 207.954,196.757C208.909,195.108 209.552,195.626 268.5,195.562C274.197,195.556 277.805,194.185 275.918,199.635C219.915,361.314 220.514,361.495 215.592,375.534C214.37,379.019 212.963,378.375 169.486,377.891C166.535,377.858 166.088,374.617 164.964,371.342C142.532,305.991 142.517,305.997 142.401,305.539C140.952,299.83 138.591,309.8 135.33,318.435C129.918,332.769 114.841,375.304 114.06,376.061C112.742,377.336 68.272,376.772 67.564,376.388C65.923,375.498 22.149,243.957 8.153,203.613C6.228,198.064 3.604,194.95 9.5,195.075C24.567,195.395 72.749,194.293 74.054,195.874C75.718,197.892 75.214,198.175 85.109,226.64C88.762,237.149 90.744,245.431 92.507,239.503C92.765,238.637 107.141,197.75 107.265,197.421C108.336,194.566 109.378,195.075 141.5,195.075C173.545,195.075 174.657,194.555 175.639,197.451C189.867,239.378 189.871,239.365 190.933,243.064ZM140.655,270.614C139.308,274.675 139.357,274.611 137.912,278.651C137.737,279.141 107.838,361.308 106.887,363.68C106.117,365.599 105.433,365.463 82.5,365.394C76.918,365.377 75.418,366.709 73.668,361.444C63.168,329.856 20.599,207.671 21.539,206.532C22.246,205.674 22.456,206.116 27.501,206.225C34.326,206.372 63.899,205.867 65.471,206.556C67.279,207.348 89.905,274.849 90.654,275.277C92.408,276.281 91.886,274.583 95.149,265.372C115.826,207.011 115.805,206.401 117.437,206.121C117.68,206.079 164.587,206.011 165.58,206.165C167.465,206.457 166.897,207.34 177.774,238.401C190.114,273.637 190.103,276.495 192.496,274.496C192.954,274.114 215.503,208.828 215.977,207.774C216.546,206.508 217.587,206.858 253.5,206.826C258.822,206.822 262.131,205.486 260.402,210.466C260.363,210.578 207.667,364.495 207.195,365.338C206.033,367.413 205.43,366.925 177.496,366.655C173.941,366.62 172.342,358.348 172.101,357.639C169.708,350.614 142.229,269.937 142.107,269.858C141.816,269.669 141.793,270.895 141.502,270.706C141.22,270.675 140.938,270.644 140.655,270.614Z" style="fill:rgb(254,232,24);fill-opacity:0.99;"/>
        <path d="M504.5,161.953C473.424,162.12 472.126,161.197 471.115,164.37C465.698,181.36 466.026,185.075 461.498,185.082C456.303,185.09 397.531,185.179 396.559,185.089C393.114,184.772 395.617,182.669 408.952,143.654C412.767,132.49 456.124,5.636 457.305,4.339C458.205,3.35 458.486,3.472 538.5,3.472C544.922,3.472 549.133,2.195 550.624,6.457C555.628,20.759 612.372,182.932 612.422,185.503C612.456,187.274 610.301,186.811 574.5,186.606C545.838,186.442 544.047,186.993 543.213,184.602C539.172,173.022 537.8,162.364 534.524,162.253C532.451,162.183 516.595,162.204 504.5,161.953ZM488.5,151.047C486.661,151.022 469.51,150.785 465.505,150.906C462.614,150.993 461.352,158.202 457.843,169.614C456.253,174.785 454.979,174.075 449.5,174.075C411.859,174.08 411.505,174.213 410.999,173.29C410.448,172.285 410.973,172.242 413.03,166.343C455.581,44.358 455.017,44.175 458.782,33.591C464.628,17.151 464.101,14.787 468.5,14.785C541.154,14.744 541.206,14.963 541.63,15.372C543.033,16.722 575.389,112.139 578.251,120.579C596.205,173.523 598.13,175.392 595.489,175.439C592.133,175.499 557.877,176.112 553.539,175.154C549.716,174.31 546.599,153.79 544.368,151.653C542.967,150.312 492.969,150.987 488.5,151.047Z" style="fill:rgb(254,232,24);fill-opacity:0.99;"/>
        <path d="M341.5,351.953C329.084,351.946 326.119,351.894 325.421,352.028C321.234,352.829 319.241,374.912 315.596,375.878C314.556,376.154 251.565,375.557 250.498,375.542C247.194,375.493 248.635,373.22 253.403,359.466C294.777,240.123 309.754,195.516 310.605,194.604C311.245,193.918 318.786,193.917 319.5,193.917C400.798,193.906 401.18,193.555 402.192,194.721C403.501,196.229 449.057,328.955 453.071,340.649C464.785,374.779 465.542,375.331 464.259,376.174C462.828,377.113 403.752,376.805 398.491,376.777C394.306,376.755 392.141,361.452 389.032,353.725C388.444,352.263 387.82,352.928 341.5,351.953ZM332.5,341.047C331.302,341.013 320.916,340.718 317.523,340.798C313.048,340.903 310.545,363.77 307.601,364.761C304.826,365.695 268.884,364.463 265.52,364.348C262.64,364.249 266.3,356.528 267.046,354.346C275.892,328.492 317.699,207.515 318.152,206.323C318.916,204.315 326.666,204.925 331.5,204.925C393.063,204.925 393.37,204.779 394.152,205.765C395.34,207.263 424.45,292.124 427.032,299.652C448.826,363.185 450.381,364.063 448.368,365.12C448.051,365.287 406.356,365.407 405.537,365.311C402.723,364.984 398.622,343.052 396.387,341.675C393.7,340.019 337.611,340.961 332.5,341.047Z" style="fill:rgb(254,232,24);fill-opacity:0.99;"/>
        <path d="M571.5,278.953C553.848,279.078 544.817,278.853 544.563,275.496C544.359,272.784 544.704,272.802 544.691,241.507C544.69,238.397 546.434,238.348 583.502,239.417C588.868,239.572 610.349,237.371 612.292,258.517C613.269,269.154 604.592,274.389 603.295,275.172C596.255,279.42 590.512,278.941 571.5,278.953ZM578.5,268.047C558.528,267.904 555.905,268.283 555.868,265.477C555.719,253.888 555.672,250.668 557.513,250.605C557.803,250.595 592.03,250.617 594.577,251.117C600.331,252.246 608.502,266.045 589.504,267.558C588.626,267.628 588.689,267.594 578.5,268.047Z" style="fill:rgb(254,232,24);fill-opacity:1;"/>
        <path d="M729.507,47.047C737.426,47.113 752.096,46.489 756.561,61.485C759.289,70.643 753.518,85.298 741.528,85.907C736.343,86.17 691.27,87.47 690.451,85.526C690.106,84.708 689.917,48.417 690.552,47.535C691.535,46.17 715.348,46.777 729.507,47.047ZM730.497,57.95C731.87,58.088 747.299,56.796 746.056,68.475C745.209,76.427 738.207,75.173 710.5,75.174C709.799,75.174 702.361,75.174 701.78,74.345C701.561,74.032 700.827,58.912 702.323,58.228C703.392,57.74 708.282,57.885 730.497,57.95Z" style="fill:rgb(254,232,24);fill-opacity:1;"/>
        <path d="M492.002,73.332C494.554,65.983 494.542,66.002 494.702,65.577C503.584,41.851 504.731,34.586 506.299,40.582C506.454,41.175 529.839,109.726 531.395,114.528C532.33,117.418 528.223,116.677 527.5,116.675C478.075,116.566 478.062,116.746 477.648,116.346C477.535,116.237 476.36,115.823 492.002,73.332ZM494.998,97.667C503.282,76.102 504.304,68.637 505.545,72.462C515.636,103.559 517.081,104.262 515.339,105.16C514.804,105.436 494.047,105.416 493.642,105.18C492.205,104.343 494.971,97.747 494.998,97.667Z" style="fill:rgb(254,232,24);fill-opacity:0.99;"/>
        <path d="M373.5,306.082C331.754,306.082 329.08,307.995 329.635,304.528C329.671,304.307 351.891,243.896 353.83,238.625C356.829,230.472 356.386,228.358 358.194,229.807C359.347,230.731 358.436,231.214 363.881,247.378C383.147,304.571 384.284,305.968 382.381,306.051C381.671,306.082 381.723,306.053 373.5,306.082ZM364.492,295.062C351.247,295.077 345.566,295.683 345.678,293.521C345.697,293.155 354.672,268.909 355.476,266.489C355.558,266.241 356.967,262.003 358.177,264.644C359.93,268.469 359.195,268.651 367.391,292.534C368.525,295.839 364.985,294.977 364.492,295.062Z" style="fill:rgb(254,232,24);fill-opacity:0.99;"/>
    </g>
</svg>
